<svg width="20" height="20" viewBox="0 0 24 24" fill="none" xmlns="http://www.w3.org/2000/svg"><path d="M12 15C13.6569 15 15 13.6569 15 12C15 10.3431 13.6569 9 12 9C10.3431 9 9 10.3431 9 12C9 13.6569 10.3431 15 12 15Z" stroke="#FFAD60" stroke-width="2"/><path d="M19.4 15A7.96 7.96 0 0020 12C20 11.3 19.9 10.6 19.7 10M4.6 9A7.96 7.96 0 004 12C4 12.7 4.1 13.4 4.3 14M15 4.6A7.96 7.96 0 0012 4C11.3 4 10.6 4.1 10 4.3M9 19.4A7.96 7.96 0 0012 20C12.7 20 13.4 19.9 14 19.7" stroke="#FFAD60" stroke-width="2"/></svg>
