<svg xmlns="http://www.w3.org/2000/svg" viewBox="0 0 48 48">
  <path fill="#25D366" d="M4 24C4 12.954 12.954 4 24 4s20 8.954 20 20-8.954 20-20 20c-3.485 0-6.784-.898-9.647-2.477L4 44l2.552-10.423A19.915 19.915 0 0 1 4 24z"/>
  <path fill="#fff" d="M36.381 30.219c-.537-.268-3.175-1.565-3.664-1.742-.488-.176-.843-.268-1.198.268-.356.536-1.37 1.742-1.681 2.1-.312.357-.624.402-1.161.134-.537-.268-2.265-.83-4.309-2.648-1.592-1.424-2.667-3.182-2.977-3.718-.312-.536-.033-.825.234-1.093.24-.24.537-.625.806-.934.268-.312.356-.536.537-.894.18-.357.09-.67-.045-.938-.134-.268-1.347-3.246-1.843-4.441-.485-1.172-.97-1.008-1.342-1.028-.357-.018-.77-.022-1.183-.022-.413 0-1.082.18-1.65.86-.568.67-2.16 2.28-2.16 5.544 0 3.264 2.208 6.406 2.517 6.853.312.446 4.285 6.538 10.407 9.168 1.456.632 2.598 1.01 3.477 1.292 1.463.463 2.794.398 3.85.242 1.174-.174 3.589-1.372 4.1-2.697.506-1.325.506-2.462.353-2.706-.151-.243-.568-.376-1.19-.656z"/>
</svg>
